<?xml version="1.0" standalone="no"?>
<!DOCTYPE svg PUBLIC "-//W3C//DTD SVG 20010904//EN"
 "http://www.w3.org/TR/2001/REC-SVG-20010904/DTD/svg10.dtd">
<svg version="1.0" xmlns="http://www.w3.org/2000/svg"
 width="487.000000pt" height="283.000000pt" viewBox="0 0 487.000000 283.000000"
 preserveAspectRatio="xMidYMid meet">

<g transform="translate(0.000000,283.000000) scale(0.100000,-0.100000)"
fill="#ffffff" stroke="none">
<path d="M4206 2741 c-14 -15 -26 -32 -26 -37 0 -11 -124 -356 -140 -389 -5
-11 -23 -56 -40 -100 -17 -44 -35 -89 -40 -100 -5 -11 -21 -49 -35 -85 -14
-36 -68 -168 -119 -295 -51 -126 -112 -282 -136 -345 -23 -63 -48 -128 -55
-145 -7 -16 -16 -41 -20 -55 -12 -42 -101 -271 -132 -340 -58 -129 -66 -151
-66 -180 0 -30 29 -74 44 -65 4 3 10 1 14 -4 3 -7 15 -7 29 -1 13 5 27 6 30 3
3 -3 15 16 27 43 11 27 36 83 56 124 45 95 146 333 162 381 11 33 18 39 78 59
55 19 79 21 142 16 143 -11 271 -51 375 -116 20 -12 50 -23 68 -24 38 -3 35 6
84 -256 2 -14 11 -59 19 -100 12 -64 29 -184 51 -370 6 -48 21 -148 30 -193 3
-15 10 -25 15 -21 5 3 9 -2 9 -10 0 -9 7 -13 20 -11 11 2 22 -1 26 -6 4 -6 11
-6 20 2 8 6 14 8 14 4 0 -4 7 -1 16 6 32 26 36 59 19 158 -22 128 -21 127 -40
276 -15 127 -38 255 -75 425 -18 84 -58 297 -67 355 -15 110 -59 363 -84 485
-17 80 -34 186 -40 235 -22 213 -38 324 -65 449 -8 39 -19 102 -24 140 -10 80
-29 105 -82 110 -29 3 -42 -2 -62 -23z m58 -491 c8 -63 18 -144 21 -180 3 -36
10 -87 15 -115 5 -27 11 -61 14 -75 2 -14 7 -36 10 -50 3 -14 8 -38 11 -55 3
-16 13 -68 21 -115 43 -230 70 -401 64 -405 -3 -2 -40 12 -83 31 -126 55 -261
85 -389 85 -108 0 -109 0 -102 22 7 25 108 286 129 332 7 17 20 55 30 85 10
30 21 60 24 65 4 6 17 35 28 65 12 30 52 132 88 225 37 94 71 181 76 194 16
41 27 12 43 -109z"/>
<path d="M1671 2589 c-33 -36 -42 -110 -40 -339 3 -249 21 -798 34 -985 2 -38
7 -178 10 -310 5 -188 9 -243 21 -256 8 -8 14 -20 14 -26 0 -9 25 -22 55 -27
20 -4 54 27 64 57 6 18 9 52 7 77 -2 25 -7 223 -11 440 -3 217 -8 420 -10 450
-2 30 -7 145 -10 255 -4 110 -8 226 -10 258 -2 31 0 55 4 52 5 -2 108 -204
230 -447 282 -563 313 -623 329 -624 6 -1 14 -3 17 -4 13 -7 31 -5 43 3 6 5
12 6 12 2 0 -5 9 0 20 10 11 10 17 21 15 26 -3 4 -1 10 5 14 5 3 10 14 10 24
0 19 34 82 150 281 38 63 87 153 111 200 23 47 68 126 99 175 31 50 78 129
104 177 26 48 51 90 55 93 11 6 22 -139 26 -355 4 -182 13 -391 19 -460 2 -19
7 -89 11 -155 4 -66 9 -129 10 -140 2 -11 6 -65 10 -120 12 -199 16 -229 36
-251 25 -26 61 -25 92 4 13 12 27 19 32 15 4 -5 5 -3 1 4 -3 6 -2 14 3 17 5 3
7 27 5 53 -1 27 -5 86 -8 133 -3 47 -11 130 -17 185 -20 181 -36 457 -38 661
-1 110 -4 211 -6 225 -2 13 -6 126 -9 250 -6 272 -12 292 -81 297 -38 2 -66
-21 -101 -84 -14 -27 -63 -105 -109 -174 -45 -69 -116 -177 -157 -240 -42 -63
-95 -151 -118 -195 -23 -44 -68 -127 -100 -185 -32 -58 -69 -127 -82 -155 -14
-27 -29 -50 -34 -52 -5 -2 -77 133 -160 299 -184 369 -320 636 -337 663 -6 10
-27 41 -44 67 -18 26 -33 51 -33 56 0 4 -15 25 -34 45 -39 43 -75 48 -105 16z"/>
<path d="M1253 2557 c-45 -20 -46 -46 -39 -637 4 -305 8 -580 10 -610 6 -78 8
-391 3 -396 -2 -2 -30 33 -62 79 -33 45 -70 93 -83 107 -12 14 -44 58 -70 98
-26 40 -89 136 -141 215 -51 78 -118 183 -148 232 -30 50 -71 117 -92 150 -21
33 -50 82 -65 110 -16 27 -41 67 -56 90 -31 45 -133 212 -143 235 -4 8 -32 53
-62 100 -30 47 -69 113 -86 148 -32 64 -54 82 -104 82 -12 0 -33 -9 -46 -19
-24 -19 -24 -21 -21 -177 2 -86 5 -171 7 -188 5 -34 12 -190 20 -457 3 -98 8
-188 10 -200 3 -23 8 -113 21 -404 3 -77 7 -151 9 -164 2 -13 5 -166 6 -340 1
-276 4 -322 19 -366 10 -27 19 -45 19 -40 1 6 5 4 10 -4 14 -21 87 -22 106 -1
19 21 18 -1 11 290 -12 451 -16 575 -20 600 -2 14 -7 120 -10 235 -10 335 -16
505 -21 575 -9 121 -17 215 -20 238 -5 33 10 19 43 -41 16 -28 60 -101 98
-162 38 -60 80 -130 93 -155 14 -25 48 -81 76 -125 29 -44 65 -102 80 -130 33
-59 360 -552 383 -578 8 -9 20 -25 26 -35 38 -63 57 -93 109 -172 84 -128 96
-139 148 -136 57 3 95 29 110 73 9 27 10 179 6 598 -3 309 -9 568 -12 576 -3
8 -7 154 -9 326 -4 329 -9 366 -51 380 -32 11 -39 11 -62 0z"/>
</g>
</svg>
